<svg width="69" height="69" viewBox="0 0 69 69" fill="none" xmlns="http://www.w3.org/2000/svg">
<rect width="69" height="69" rx="34.5" transform="matrix(-1 0 0 1 69 0)" fill="#F2632A"/>
<path d="M38.2525 43.3375C38.4425 43.3375 38.6325 43.2675 38.7825 43.1175C39.0725 42.8275 39.0725 42.3475 38.7825 42.0575L32.2625 35.5375C31.7825 35.0575 31.7825 34.2775 32.2625 33.7975L38.7825 27.2775C39.0725 26.9875 39.0725 26.5075 38.7825 26.2175C38.4925 25.9275 38.0125 25.9275 37.7225 26.2175L31.2025 32.7375C30.6925 33.2475 30.4025 33.9375 30.4025 34.6675C30.4025 35.3975 30.6825 36.0875 31.2025 36.5975L37.7225 43.1175C37.8725 43.2575 38.0625 43.3375 38.2525 43.3375Z" fill="white"/>
</svg>
